<?xml version="1.0" encoding="utf-8"?>
<!-- Generator: Adobe Illustrator 22.1.0, SVG Export Plug-In . SVG Version: 6.00 Build 0)  -->
<svg version="1.1" id="Layer_1" xmlns="http://www.w3.org/2000/svg" xmlns:xlink="http://www.w3.org/1999/xlink" x="0px" y="0px"
	 viewBox="0 0 40 40" style="enable-background:new 0 0 40 40;" xml:space="preserve">
<style type="text/css">
	.st0{fill:#FFFFFF;}
</style>
<g transform="translate(0,0)">
	<path class="st0" d="M10.8,3.6L2.3,9.7l7.4,2.2l8.6-6.7L10.8,3.6L10.8,3.6z M19.5,6l-9.1,6.9L14.3,23l0.7-0.6l0.3-1.2
		c-0.5-0.3-0.7-0.9-0.7-1.6c0-0.6,0.4-1,0.8-1.1c0.1,0,0.2,0,0.3,0c0.1,0,0.2,0.1,0.2,0.1l0.6-2.3c0,0,0-0.1,0-0.1c0,0,0,0,0,0
		c0,0,0,0,0-0.1c0,0,0,0,0,0c0,0,0,0,0,0c0,0,0,0,0-0.1c0,0,0,0,0,0c0,0,0,0,0,0c0,0,0,0,0,0c0,0,0,0,0,0c0,0,0,0,0,0c0,0,0,0,0,0
		c0,0,0,0,0,0c0,0,0,0,0,0c0,0,0,0,0,0c0,0,0,0,0,0c0,0,0,0,0,0c0,0,0,0,0,0c0,0,0,0,0,0c0,0,0,0,0,0c0,0,0,0,0,0c0,0,0,0,0,0
		c0,0,0,0,0,0c0,0,0,0,0,0l2.6-0.2c0.1-0.4,0.4-0.7,0.8-0.8c0.1,0,0.2,0,0.3,0c0.3,0.1,0.5,0.3,0.7,0.6l1-0.1L19.5,6L19.5,6z
		 M10.7,6.6c0.7,0,1.1,0.3,1,0.7c-0.1,0.4-0.9,0.8-1.7,0.9C9.2,8.3,8.6,8,8.7,7.5c0,0,0,0,0,0c0.1-0.4,0.9-0.8,1.7-0.9c0,0,0,0,0,0
		C10.5,6.6,10.6,6.6,10.7,6.6L10.7,6.6z M18.4,8.4C18.4,8.4,18.4,8.4,18.4,8.4c0.1,0,0.2,0,0.3,0c0.6,0.2,1,0.9,0.9,1.7
		c-0.1,0.7-0.6,1.2-1.1,1c0,0,0,0,0,0c-0.6-0.2-1-0.9-0.9-1.7c0,0,0,0,0,0C17.6,8.9,17.9,8.4,18.4,8.4L18.4,8.4z M2,11l3.6,8.8
		l7.2,3.1l-3.5-9.6L2,11L2,11z M13.4,12.4c0.1,0,0.2,0,0.3,0c0.6,0.2,1,0.9,0.9,1.7c-0.1,0.7-0.6,1.2-1.1,1c0,0,0,0,0,0
		c-0.6-0.2-1-0.9-0.9-1.7C12.6,12.8,12.9,12.4,13.4,12.4L13.4,12.4z M7.6,13.4c0.4,0,1,0.5,1.3,1.2c0.4,0.7,0.4,1.4,0,1.5
		c0,0,0,0,0,0c-0.4,0.1-1-0.4-1.4-1.1C7.1,14.2,7.1,13.5,7.6,13.4C7.5,13.4,7.6,13.4,7.6,13.4L7.6,13.4z M27.8,16.5l-8.6,0.7
		l8.7,6.1l8.7-1.3L27.8,16.5L27.8,16.5z M5.6,17.2c0.4,0,1,0.5,1.3,1.2c0.4,0.7,0.4,1.4,0,1.5c-0.4,0.1-1-0.4-1.4-1.1
		C5.1,18,5.1,17.3,5.6,17.2C5.5,17.2,5.6,17.2,5.6,17.2L5.6,17.2z M17.7,17.8l-3.2,11.8l8.9,7.6L27,24.4L17.7,17.8L17.7,17.8z
		 M27.4,18.7c0.5,0,1.1,0.1,1.5,0.4c0.8,0.4,1,0.9,0.6,1.1c0,0,0,0,0,0c-0.5,0.2-1.4,0.1-2.2-0.2c0,0,0,0,0,0
		c-0.8-0.4-1-0.9-0.6-1.1C26.9,18.7,27.1,18.7,27.4,18.7L27.4,18.7z M37.6,23.3l-9.3,1.4l-3.6,12.9l8.9-2.4L37.6,23.3z M23.7,24.1
		c0.1,0,0.2,0,0.3,0.1c0.7,0.3,1.1,1.4,1,2.4c0,0,0,0,0,0c-0.1,1.1-0.7,1.7-1.4,1.4c-0.7-0.3-1.1-1.4-1-2.4c0,0,0,0,0,0
		C22.7,24.7,23.1,24.1,23.7,24.1z M35.5,25c0.3,0,0.5,0.1,0.6,0.3c0.3,0.5,0.1,1.5-0.5,2.2c-0.6,0.7-1.3,0.8-1.6,0.3
		c-0.3-0.5-0.1-1.5,0.5-2.2C34.8,25.3,35.2,25,35.5,25L35.5,25z M30.2,25.9c0.3,0,0.5,0.1,0.6,0.3c0.3,0.5,0.1,1.5-0.5,2.2
		c-0.6,0.7-1.3,0.8-1.6,0.3c-0.3-0.5-0.1-1.5,0.5-2.2C29.5,26.1,29.9,25.9,30.2,25.9L30.2,25.9z M16.8,26.9c0.1,0,0.2,0,0.3,0.1
		c0.7,0.3,1.1,1.4,1,2.4c0,0,0,0,0,0c-0.1,1.1-0.7,1.7-1.4,1.4c0,0,0,0,0,0c-0.7-0.3-1.1-1.4-1-2.4c0,0,0,0,0,0
		C15.9,27.5,16.3,26.9,16.8,26.9L16.8,26.9z M33.2,31.6c0.3,0,0.5,0.1,0.6,0.3c0.3,0.5,0.1,1.5-0.5,2.2c-0.6,0.7-1.3,0.8-1.6,0.3
		c-0.3-0.5-0.1-1.5,0.5-2.2C32.4,31.8,32.8,31.6,33.2,31.6L33.2,31.6z M27.8,33.1c0.3,0,0.5,0.1,0.6,0.3c0.3,0.5,0.1,1.5-0.5,2.2
		c-0.6,0.7-1.3,0.8-1.6,0.3c0,0,0,0,0,0c-0.3-0.5-0.1-1.5,0.5-2.2C27,33.3,27.4,33.1,27.8,33.1L27.8,33.1z"/>
</g>
</svg>
